PathFileType	4	(X/Y/Z)	C:\Users\WrightLab\Desktop\Jo\P2_Trial11.trc
DataRate	CameraRate	NumFrames	NumMarkers	Units	OrigDataRate	OrigDataStartFrame	OrigNumFrames
100.00	100.00	      30	19	mm	100.00	291	      1163
Frame#	Time	Headset_Front			Headset_Back			Headset_Left			Headset_Right			Left_Shoulder			Right_Shoulder			Sternum			C7			Left Elbow			Right Elbow			Left Wrist			Right Wrist			Left ASIS			Right ASIS			S2			Left Knee			Right Knee			Left Ankle			Right Ankle			
		X1	Y1	Z1	X2	Y2	Z2	X3	Y3	Z3	X4	Y4	Z4	X5	Y5	Z5	X6	Y6	Z6	X7	Y7	Z7	X8	Y8	Z8	X9	Y9	Z9	X10	Y10	Z10	X11	Y11	Z11	X12	Y12	Z12	X13	Y13	Z13	X14	Y14	Z14	X15	Y15	Z15	X16	Y16	Z16	X17	Y17	Z17	X18	Y18	Z18	X19	Y19	Z19	

291	2.900							-208.50696	1633.17395	1842.41589				-220.09398	1476.15771	1890.06982							-57.19883	1501.87646	2018.79980																			-63.34527	1006.34839	2114.09741				166.03148	614.42657	1914.86926	-184.22145	134.11891	1969.01123	207.00835	191.55969	1827.89197	
292	2.910							-207.29881	1632.95667	1838.82385				-217.80765	1475.07727	1885.02478							-55.06343	1501.37854	2013.16162																			-59.76979	1006.04041	2109.89795				165.79422	614.49475	1912.48572	-184.33324	134.01534	1969.07861	213.38708	195.31882	1812.76099	
293	2.920							-205.54230	1631.84546	1833.96399				-215.82094	1474.10449	1880.28076	112.69801	1507.29675	1908.54980				-52.85679	1501.16345	2006.72290																			-56.65205	1006.43604	2106.08594				164.39714	614.88641	1908.39001	-184.45767	133.92203	1969.11865	220.46881	201.84132	1794.16943	
294	2.930							-203.86316	1631.24963	1828.67676				-213.90067	1473.55322	1875.68982	114.49792	1507.06970	1902.47815				-50.93082	1501.07556	2001.90320																			-53.21503	1006.72241	2102.14746	-213.42146	492.83493	1966.31470	163.30702	614.04803	1905.22302	-185.03690	133.44542	1969.39648	226.25194	205.89352	1778.87305	
295	2.940							-202.05043	1630.13330	1822.68616				-211.63219	1472.91797	1870.58093	116.43295	1507.30493	1897.18433				-48.64779	1500.69800	1997.14624																			-50.04168	1006.61298	2098.38818	-210.54932	490.96799	1960.67200	162.86215	613.54230	1905.24988	-185.23639	133.16882	1969.44409	231.98848	212.46558	1761.89478	
296	2.950							-200.38223	1628.97241	1817.93359				-209.19962	1472.08191	1865.84058	118.89001	1506.81567	1891.36487				-45.76190	1500.74243	1991.87439																			-46.53421	1006.27051	2093.55591	-208.50230	490.42291	1957.04883	162.15343	612.49841	1901.61621	-185.42973	132.87604	1969.45203	237.03702	216.99220	1748.03760	
297	2.960							-198.39406	1628.82922	1813.22778				-206.70204	1470.75745	1861.35925	121.33994	1506.80286	1886.54089				-43.75353	1500.86780	1988.09900																			-42.79793	1005.87628	2088.60254	-206.46700	489.71326	1953.32153	162.63780	611.94312	1900.67322	-185.90068	132.03058	1969.86462	240.60681	221.75600	1735.38501	
298	2.970							-196.01060	1628.32178	1808.60120				-204.43396	1470.01526	1857.29102	123.44683	1506.85034	1880.62085				-40.68455	1499.78638	1982.77185																			-39.22179	1005.91864	2084.20557	-204.80209	490.01083	1950.13428	163.13832	610.56360	1898.87219	-186.25668	131.25514	1970.33032	244.55145	227.51781	1720.63574	
299	2.980							-193.79491	1626.93042	1804.54407				-201.71988	1469.12317	1852.69922	126.13213	1506.04846	1874.65686				-37.91293	1499.88074	1977.86633																			-35.17291	1005.42871	2080.25757	-202.33461	489.48178	1946.99890	164.46936	608.77283	1898.08667	-185.97488	131.30257	1969.52881	247.46564	231.72682	1709.39294	
300	2.990							-191.50685	1626.69775	1799.85876				-198.95062	1468.38770	1848.86145	128.50952	1505.71643	1868.56689				-35.01500	1499.20337	1973.65906																			-30.97256	1005.46606	2075.45532	-200.34276	489.14798	1943.77051	166.99641	607.51111	1897.71716	-185.57231	131.30904	1968.72546	250.62024	237.12286	1698.07825	
301	3.000							-189.55159	1625.92468	1796.26038				-196.19415	1467.84387	1844.95288	131.27066	1505.98792	1864.08142				-31.60662	1498.76599	1968.05261																			-27.46115	1005.42596	2071.34131	-197.99229	488.82642	1940.31360	170.30260	605.44885	1894.68567	-185.38538	131.12175	1968.76636	253.68066	241.01584	1687.21985	
302	3.010							-186.78947	1624.66931	1791.49536				-193.18576	1466.79370	1840.89001	134.55872	1505.36914	1858.30298				-28.87863	1497.92407	1963.80786																			-23.16002	1004.19537	2065.38135	-195.54071	488.34784	1936.93506	170.65886	602.80927	1893.11768	-184.96692	130.83478	1967.96399	256.90649	244.23145	1677.88916	
303	3.020							-184.43787	1624.36768	1787.42395				-190.09749	1465.61475	1836.21179	137.28221	1505.26245	1853.45178				-25.53902	1497.43237	1958.51733																			-19.14357	1003.55194	2060.05347	-193.08348	488.35510	1933.15674	172.86717	600.73364	1889.35205	-184.74646	130.62230	1968.01855	258.93027	247.14243	1668.62195	
304	3.030							-181.95496	1623.19690	1783.70898				-186.77431	1464.28992	1830.92859	139.95911	1505.01892	1849.19348				-22.38162	1496.46350	1954.17029																			-14.71523	1002.48578	2054.83887	-190.52368	488.05707	1930.71313	176.58751	598.45435	1884.95898	-184.21436	130.34492	1967.30188	261.99545	249.09897	1660.34399	
305	3.040							-179.31169	1622.61829	1779.87854				-183.55791	1462.89954	1826.71643	143.41995	1504.65833	1843.54285				-19.10768	1495.74072	1949.06567																			-10.88980	1002.07922	2050.81836	-187.83043	487.26215	1927.95630	180.92519	599.53162	1881.60352	-183.95438	130.12352	1967.37500	263.80640	250.04054	1651.74829	
306	3.050							-176.33620	1621.66736	1777.25623				-179.78505	1461.69189	1821.97522	146.61115	1504.51917	1838.66992				-15.48803	1494.95203	1944.46558																			-6.12130	1001.66760	2045.55078	-185.43225	486.98169	1924.23035	185.12997	597.28442	1874.88293	-183.17111	130.37920	1965.84485	265.96014	250.23094	1644.91235	
307	3.060							-173.05803	1621.36353	1774.84338				-175.80122	1460.21680	1818.18567	150.29033	1503.75720	1833.24390				-11.40377	1493.63501	1939.41589																			-1.90230	1000.05432	2039.94373	-182.84000	486.16443	1921.46973	189.36137	595.98114	1868.92419	-182.85071	129.84280	1965.47827	267.10040	249.41051	1636.93262	
308	3.070							-169.98491	1620.75562	1771.08435				-172.40288	1459.28723	1814.28003	153.71379	1503.04480	1828.04675				-7.47759	1492.92053	1935.18152																			2.35901	998.73029	2034.40454	-180.33336	485.79471	1918.05066	193.13208	595.96979	1863.88867	-182.56706	129.41693	1965.61780	268.93741	248.48996	1630.41638	
309	3.080							-166.43196	1619.14099	1766.37329				-168.72765	1457.65686	1809.06042	157.27596	1502.56238	1823.46082				-3.63506	1491.69275	1931.70227																			7.07488	997.66809	2028.08777	-177.65445	484.96246	1914.27930	198.38010	594.53601	1859.04419	-182.31715	128.58575	1965.57141	269.87390	246.76874	1624.43115	
310	3.090							-162.85106	1618.70337	1764.95996				-164.72066	1456.11011	1804.25171	161.45502	1502.31787	1818.11157				0.09676	1490.23987	1927.14795																			11.55825	996.23553	2022.85522	-174.86641	484.01511	1911.52161	203.27927	592.54132	1852.96545	-181.97667	128.14771	1964.73279	271.95081	245.08908	1618.34570	
311	3.100							-159.37614	1618.02930	1762.12561				-160.80478	1455.00244	1801.83826	164.71283	1501.79883	1813.97314				4.46057	1489.07446	1921.12354																			16.61937	995.45551	2018.25244	-172.11406	483.76440	1908.50366	208.23889	590.93030	1847.20972	-181.77135	127.81836	1964.81042	272.51892	242.98724	1612.49658	
312	3.110							-156.47424	1617.99500	1758.35071				-156.62157	1454.40698	1796.84680	168.59471	1501.37073	1808.63611				8.05505	1488.26587	1917.31616																			21.69742	994.22729	2012.65442	-169.13986	482.57513	1906.31506	211.80176	589.99371	1841.08435	-181.42039	127.41464	1963.89453	274.17947	239.37193	1608.56482	
313	3.120							-152.87608	1617.64282	1756.22180				-153.32375	1453.38098	1791.89758	172.77061	1500.72754	1803.80933				12.80628	1488.22192	1912.57788																			25.95951	992.52649	2007.18311	-166.13226	482.05127	1902.12695	217.11049	589.88940	1835.44971	-181.13214	127.08533	1962.59509	275.51328	235.98180	1604.57788	
314	3.130							-149.07622	1616.88806	1752.87646				-149.98474	1452.89014	1787.72327	175.96642	1500.95898	1799.33850				16.26064	1487.46143	1909.38354																			30.33956	991.80341	2001.48157	-163.31116	481.68042	1899.14905	222.10628	588.55200	1828.40955	-181.50159	127.15116	1961.99634	277.17560	231.95830	1601.98315	
315	3.140							-145.71747	1616.37878	1748.68970				-146.04112	1451.98889	1783.41589	179.12726	1500.89294	1795.64685				19.79358	1486.98840	1904.50940																			35.36365	991.27258	1996.43298	-160.22191	481.33658	1895.29504	228.07077	591.32452	1822.44360	-180.96606	127.12045	1961.48193	278.49048	227.64870	1599.58020	
316	3.150							-142.38454	1616.35010	1746.45154				-142.31407	1451.92627	1779.50623	182.69113	1501.05383	1791.37793				23.61675	1486.09290	1899.17444																			39.38722	990.38000	1992.62256	-156.85976	480.89847	1891.19775	232.99225	591.87720	1815.90186	-180.41544	127.06391	1960.21582	279.11725	223.41040	1598.71472	
317	3.160							-138.58051	1616.14636	1744.04907				-138.91113	1451.46777	1775.08936	186.09995	1500.22180	1786.44812				26.41789	1485.63745	1895.26404																			43.66998	990.48950	1987.42114	-153.44336	480.38654	1887.56958	237.58678	593.20197	1809.69104	-179.56174	126.96220	1958.02490	279.75034	219.10063	1598.85168	
318	3.170							-134.61870	1615.19763	1738.27917				-135.13760	1450.49084	1769.03992	189.40712	1500.05347	1781.51892				29.91847	1485.19116	1890.67383																			47.49927	989.13550	1982.00452	-149.63136	480.21979	1883.23425	243.76521	594.00134	1803.23645	-179.44698	127.60020	1956.64001	281.09634	214.99617	1598.62390	
319	3.180							-131.43697	1614.75330	1735.59070				-131.90929	1449.50989	1764.59497	192.60860	1499.63904	1777.30237				33.45289	1484.06714	1886.67212																			51.02224	988.10602	1976.94092	-146.03853	479.46942	1878.01526	249.42604	595.42670	1796.60034	-179.19943	128.04315	1954.99744	282.23257	210.09642	1599.80212	
320	3.190							-127.65052	1614.24475	1732.96851				-127.93295	1448.48816	1760.10144	195.42322	1499.78906	1773.18640				36.97876	1483.66211	1882.71045																			54.67503	987.59277	1971.66431	-142.68806	478.79230	1873.28357	255.58853	595.81287	1789.31616	-178.24294	128.14009	1952.01196	283.01785	205.55261	1600.53723	
